# xmcd
#
# Track frame offsets:
#	150
#	19629
#	41598
#	61648
#	82458
#	94830
#	123619
#	152195
#	176956
#	192258
#	204692
#	228510
#	252194
#
# Disc length: 3630 seconds
#
# Revision: 2
# Processed by: cddbd v1.5.2PL0 Copyright (c) Steve Scherf et al.
# Submitted via: audiograbber 1.83.01
#
DISCID=b60e2c0d
DTITLE=Korey Eagleton - Heart cries
DYEAR=1900
DGENRE=Contemporary ChristianChristian Rock
TTITLE0=The Dialogue
TTITLE1=Touch Me Again
TTITLE2=What Now?
TTITLE3=This Thang Called Grace
TTITLE4=I Need You
TTITLE5=Watch Over Me
TTITLE6=Mighty One
TTITLE7=Hear Me
TTITLE8=Shanna's Song
TTITLE9=You Are My Everything
TTITLE10=Lord I Love You
TTITLE11=You've Been Good
TTITLE12=Here I am
EXTD=
EXTT0=
EXTT1=
EXTT2=
EXTT3=
EXTT4=
EXTT5=
EXTT6=
EXTT7=
EXTT8=
EXTT9=
EXTT10=
EXTT11=
EXTT12=
PLAYORDER=
